PathFileType	4	(X/Y/Z)	C:\Documents and Settings\mvidt\Desktop\Forward_reach_ACS_12-5-11\acs_static-redo2.trc
DataRate	CameraRate	NumFrames	NumMarkers	Units	OrigDataRate	OrigDataStartFrame	OrigNumFrames
200.00	200.00	      17	10	mm	200.00	1	      2000
Frame#	Time	R.Clavicle			C7			R.Shoulder			R.Bicep			R.Elbow.Lateral			R.Forearm			R.Radius			Handle			R.Elbow.Medial			R.Ulna			
		X1	Y1	Z1	X2	Y2	Z2	X3	Y3	Z3	X4	Y4	Z4	X5	Y5	Z5	X6	Y6	Z6	X7	Y7	Z7	X8	Y8	Z8	X9	Y9	Z9	X10	Y10	Z10	

1	0.000	-254.02840	403.16644	328.80511	-390.27701	400.18958	418.62845	-260.70969	249.71298	328.16620	-96.75637	261.28143	281.48236				38.34868	282.18842	312.16119	134.53719	367.28937	416.58728	202.39424	424.67328	510.91330	-5.77770	313.37164	183.77257	195.22789	315.01056	379.64124	
2	0.005	-254.02840	403.16644	328.80511	-390.27701	400.18958	418.62845	-260.56918	249.57677	328.06866	-96.75637	261.28143	281.48236				38.34868	282.18842	312.16119	134.53719	367.28937	416.58728	202.21890	424.88760	511.05978	-5.71422	313.33804	183.55672	195.22789	315.01056	379.64124	
3	0.010	-254.02840	403.16644	328.80511	-390.27701	400.18958	418.62845	-260.70969	249.71298	328.16620	-96.73347	261.66165	281.76794				38.34868	282.18842	312.16119	134.53719	367.28937	416.58728	202.06224	424.97327	511.33023	-5.77770	313.37164	183.77257	195.22789	315.01056	379.64124	
4	0.015	-254.02840	403.16644	328.80511	-390.27701	400.18958	418.62845	-260.70969	249.71298	328.16620	-96.73347	261.66165	281.76794				38.04248	282.60834	312.15143	134.37015	367.55078	416.80438	201.96472	425.03656	511.28207	-5.71422	313.33804	183.55672	195.22789	315.01056	379.64124	
5	0.020	-254.02840	403.16644	328.80511	-390.41873	400.04782	418.61020	-260.70969	249.71298	328.16620	-96.73347	261.66165	281.76794				38.04248	282.60834	312.15143	134.19144	367.64722	416.88577	202.14005	424.82224	511.13559	-5.71422	313.33804	183.55672	195.22789	315.01056	379.64124	
6	0.025	-254.02840	403.16644	328.80511	-390.27701	400.18958	418.62845	-260.78482	249.59409	328.16016	-96.73347	261.66165	281.76794				37.78292	282.83270	311.98233	134.19144	367.64722	416.88577	201.94878	424.70660	511.27002	-5.77770	313.37164	183.77257	195.22789	315.01056	379.64124	
7	0.030	-254.02840	403.16644	328.80511	-390.41873	400.04782	418.61020	-260.78482	249.59409	328.16016	-96.73347	261.66165	281.76794				38.04248	282.60834	312.15143	134.19144	367.64722	416.88577	201.74205	424.90982	511.51859	-5.77770	313.37164	183.77257	195.22789	315.01056	379.64124	
8	0.035	-254.47513	403.30545	328.53906	-390.41873	400.04782	418.61020	-260.78482	249.59409	328.16016	-96.73347	261.66165	281.76794				37.44783	282.54846	312.37955	134.19144	367.64722	416.88577	201.59883	424.98026	511.53195	-5.77770	313.37164	183.77257	195.22789	315.01056	379.64124	
9	0.040	-254.47513	403.30545	328.53906	-391.03448	400.40558	418.90009	-260.78482	249.59409	328.16016	-96.73347	261.66165	281.76794				38.04248	282.60834	312.15143	134.46828	367.28922	416.65640	201.59883	424.98026	511.53195	-5.77770	313.37164	183.77257	195.22789	315.01056	379.64124	
10	0.045	-254.02840	403.16644	328.80511	-391.03448	400.40558	418.90009	-260.78482	249.59409	328.16016	-96.73347	261.66165	281.76794				37.78292	282.83270	311.98233	134.46828	367.28922	416.65640	201.81006	424.82086	511.68604	-5.77770	313.37164	183.77257	194.92262	315.37567	379.72061	
11	0.050	-254.02840	403.16644	328.80511	-391.03448	400.40558	418.90009	-260.78482	249.59409	328.16016	-96.73347	261.66165	281.76794				38.04248	282.60834	312.15143	134.19144	367.64722	416.88577	201.21227	424.89795	511.76926	-5.77770	313.37164	183.77257	194.92262	315.37567	379.72061	
12	0.055	-254.02840	403.16644	328.80511	-391.03448	400.40558	418.90009	-260.78482	249.59409	328.16016	-96.73347	261.66165	281.76794				37.44783	282.54846	312.37955	134.19144	367.64722	416.88577	201.42123	424.77112	511.80588	-5.77770	313.37164	183.77257	194.92262	315.37567	379.72061	
13	0.060	-254.02840	403.16644	328.80511	-391.03448	400.40558	418.90009	-260.78482	249.59409	328.16016	-96.64527	261.25104	281.55472				37.44783	282.54846	312.37955	134.19144	367.64722	416.88577	201.20744	424.78397	511.52234	-6.04671	313.59058	183.88155	194.92262	315.37567	379.72061	
14	0.065	-254.02840	403.16644	328.80511	-391.03448	400.40558	418.90009	-260.70969	249.71298	328.16620	-96.73347	261.66165	281.76794				37.29427	283.23941	312.40604	134.19144	367.64722	416.88577	201.20744	424.78397	511.52234	-5.77770	313.37164	183.77257	194.92262	315.37567	379.72061	
15	0.070	-254.02840	403.16644	328.80511	-391.03448	400.40558	418.90009	-260.78482	249.59409	328.16016	-96.64527	261.25104	281.55472				37.46989	282.94373	312.67435	134.19144	367.64722	416.88577	200.97932	425.04205	511.85016	-5.77770	313.37164	183.77257	194.67653	316.39789	379.71094	
16	0.075	-254.02840	403.16644	328.80511	-391.03448	400.40558	418.90009	-260.78482	249.59409	328.16016	-96.73347	261.66165	281.76794				37.46989	282.94373	312.67435	134.47787	367.34949	416.77435	200.92166	425.05087	511.92902	-5.77770	313.37164	183.77257	195.16005	317.50317	381.49036	
17	0.080	-254.02840	403.16644	328.80511	-391.03448	400.40558	418.90009	-260.70969	249.71298	328.16620	-96.73347	261.66165	281.76794				37.29427	283.23941	312.40604	134.34166	367.39288	416.92264	200.92166	425.05087	511.92902	-6.04671	313.59058	183.88155	195.12180	317.67038	381.76852	
